<svg width="16" height="16" viewBox="0 0 16 16" fill="none" xmlns="http://www.w3.org/2000/svg">
<g clip-path="url(#clip0_835_10860)">
<path d="M8 0C3.58877 0 0 3.58877 0 8C0 12.4112 3.58871 16 7.99993 16C12.4112 16 15.9999 12.4112 15.9999 8C15.9999 3.58877 12.4112 0 8 0ZM8 14.0435C4.6676 14.0435 1.95652 11.3324 1.95652 8C1.95652 4.6676 4.6676 1.95652 8 1.95652C11.3324 1.95652 14.0435 4.6676 14.0435 8C14.0435 11.3324 11.3323 14.0435 8 14.0435Z" fill="#0036F8"/>
<path d="M8.9785 11.293V8.0974C8.9785 7.55712 8.54051 7.11914 8.00023 7.11914C7.45996 7.11914 7.02197 7.55712 7.02197 8.0974V11.293C7.02197 11.8333 7.45996 12.2713 8.00023 12.2713C8.54051 12.2713 8.9785 11.8333 8.9785 11.293Z" fill="#0036F8"/>
<path d="M8.03285 3.72852H7.96762C7.44535 3.72852 7.02197 4.1519 7.02197 4.67417C7.02197 5.19643 7.44535 5.61982 7.96762 5.61982H8.03285C8.55511 5.61982 8.9785 5.19643 8.9785 4.67417C8.9785 4.1519 8.55511 3.72852 8.03285 3.72852Z" fill="#0036F8"/>
</g>
<defs>
<clipPath id="clip0_835_10860">
<rect width="16" height="16" fill="white"/>
</clipPath>
</defs>
</svg>
